<svg xmlns="http://www.w3.org/2000/svg" viewBox="0 0 1200 900" role="img" aria-labelledby="title desc">
  <title id="title">Instalación técnica profesional</title>
  <desc id="desc">Ilustración de un técnico revisando un cuadro eléctrico con herramientas profesionales.</desc>
  <defs>
    <linearGradient id="bg" x1="0" x2="1" y1="0" y2="1">
      <stop offset="0" stop-color="#e7f2fb"/>
      <stop offset="1" stop-color="#ffffff"/>
    </linearGradient>
    <linearGradient id="panel" x1="0" x2="1">
      <stop offset="0" stop-color="#0b67b2"/>
      <stop offset="1" stop-color="#074a83"/>
    </linearGradient>
  </defs>
  <rect width="1200" height="900" fill="url(#bg)"/>
  <rect x="76" y="84" width="1048" height="732" rx="36" fill="#ffffff" stroke="#d9e3ec" stroke-width="6"/>
  <rect x="142" y="150" width="430" height="570" rx="24" fill="url(#panel)"/>
  <rect x="190" y="210" width="334" height="84" rx="10" fill="#ffffff" opacity=".95"/>
  <rect x="190" y="330" width="138" height="108" rx="10" fill="#8fd3ff"/>
  <rect x="386" y="330" width="138" height="108" rx="10" fill="#8fd3ff"/>
  <rect x="190" y="484" width="334" height="22" rx="11" fill="#ffffff" opacity=".9"/>
  <rect x="190" y="540" width="334" height="22" rx="11" fill="#ffffff" opacity=".9"/>
  <rect x="190" y="596" width="334" height="22" rx="11" fill="#ffffff" opacity=".9"/>
  <circle cx="260" cy="664" r="22" fill="#f2a900"/>
  <circle cx="356" cy="664" r="22" fill="#21a65b"/>
  <circle cx="452" cy="664" r="22" fill="#ef5b5b"/>
  <path d="M716 267c-34 0-62 28-62 62v86h124v-86c0-34-28-62-62-62z" fill="#1c2833"/>
  <circle cx="716" cy="355" r="62" fill="#f2c49b"/>
  <path d="M650 340c16-72 103-93 148-34 6 49-22 76-22 76-24-14-44-38-52-76-21 30-50 39-74 34z" fill="#263747"/>
  <path d="M610 812V575c0-70 54-126 122-126h26c68 0 122 56 122 126v237z" fill="#0b67b2"/>
  <path d="M650 812V620h190v192z" fill="#074a83" opacity=".72"/>
  <rect x="575" y="562" width="210" height="52" rx="26" fill="#f2c49b" transform="rotate(-17 680 588)"/>
  <rect x="795" y="525" width="56" height="170" rx="28" fill="#f2c49b" transform="rotate(20 823 610)"/>
  <rect x="842" y="640" width="170" height="44" rx="22" fill="#0f2538" transform="rotate(20 927 662)"/>
  <rect x="964" y="649" width="82" height="28" rx="14" fill="#f2a900" transform="rotate(20 1005 663)"/>
  <path d="M792 454l56 42-34 48-65-41z" fill="#e7f2fb"/>
  <path d="M684 454l-50 42 34 48 60-41z" fill="#e7f2fb"/>
  <path d="M694 548h93l-28 264h-37z" fill="#ffffff" opacity=".92"/>
  <path d="M695 548l37 48-20 30 28 186h-30l-42-260z" fill="#d9e3ec"/>
  <path d="M787 548l-37 48 20 30-28 186h30l42-260z" fill="#d9e3ec"/>
  <path d="M146 758h908" stroke="#d9e3ec" stroke-width="8" stroke-linecap="round"/>
</svg>
